<svg viewBox="0 0 400 400" width="400px" height="400px" xmlns="http://www.w3.org/2000/svg" version="1.1" xmlns:xlink="http://www.w3.org/1999/xlink">
    <ellipse cx="110.5" cy="300" rx="58.5" ry="58" fill="rgb(0, 0, 0)"/>
    <polyline points="126,236 153,248 171,268 178,295 174,324 159,350 209,338 248,323 281,309 312,289 344,259 366,221 370,155 349,103 316,64 260,42 203,35 133,40 72,57 120,53 187,65 222,84 256,107 273,135 275,166 262,188 242,204 215,214 189,221 170,226 149,232" fill="rgb(0, 0, 0)"/>
</svg>