<svg viewBox="0 0 400 400" width="400px" height="400px" xmlns="http://www.w3.org/2000/svg" version="1.1" xmlns:xlink="http://www.w3.org/1999/xlink">
    <ellipse transform="matrix(0.6,0,0,0.7,61.9,84.2)" cx="248.2" cy="278.5" rx="58.5" ry="50.1" fill="rgb(255, 255, 255)"/>
    <polyline points="192,68 136,77 116,91 89,127 74,162 68,202 67,225 71,241 78,218 87,203 101,195 121,194 138,200 145,206 127,165 126,136 134,104 156,79" fill="rgb(255, 255, 255)"/>
    <ellipse cx="117" cy="239" rx="38" ry="37" fill="rgb(255, 255, 255)"/>
    <polyline points="203,236 222,234 237,240 249,253 257,269 254,289 282,271 304,250 317,231 326,214 334,196 339,182 340,164 337,134 327,99 300,73 310,109 310,139 305,160 290,176 272,197 245,215" fill="rgb(255, 255, 255)"/>
</svg>