<svg viewBox="0 0 400 400" width="400px" height="400px" xmlns="http://www.w3.org/2000/svg" version="1.1" xmlns:xlink="http://www.w3.org/1999/xlink">
    <polyline points="111,249 81,307 72,292 73,213 127,203 169,286 136,339 57,339 44,206 59,211 63,310 101,325 138,293 125,241 110,219 85,230 84,269" fill="rgb(234, 234, 234)" stroke="none"/>
    <polyline points="115,207 271,43 374,103 309,96 262,88 178,179 139,237" fill="rgb(234, 234, 234)" stroke="none"/>
    <polyline points="142,241 267,111 356,139 273,150 145,263" fill="rgb(234, 234, 234)" stroke="none"/>
    <polyline points="144,274 264,176 338,178 331,208 278,198" fill="rgb(234, 234, 234)" stroke="none"/>
    <polyline points="153,265 284,192 157,274" fill="rgb(234, 234, 234)" stroke="none"/>
    <polyline points="152,284 281,218 321,229 278,236 135,309" fill="rgb(234, 234, 234)" stroke="none"/>
</svg>