<svg viewBox="0 0 400 400" width="400px" height="400px" xmlns="http://www.w3.org/2000/svg" version="1.1" xmlns:xlink="http://www.w3.org/1999/xlink">
    <ellipse cx="193.5" cy="210" rx="50" ry="50" fill="rgb(255, 255, 255)"/>
    <path d="M 215.5 261 C 215 261 180 280.5 152 253 S 140 189 140.5 189 S 140.5 188.5 140.5 188.5 S 49 337.5 49 337.5" fill="rgb(255, 255, 255)"/>

    <g transform="matrix(0.1,-1.1,1.1,0.1,-46.5,169.1)">
        <path fill="rgb(255, 255, 255)" transform="matrix(1.1,0,0,1.1,-26.3,-9)" d="M 87 134.9 C 84.3 140.5 83.4 141.3 82.7 150.1 S 89 169.5 92.4 171.3 S 96.4 174.7 104.7 176.5 S 104.7 176.5 104.7 176.5 S 51 183.3 51 183.3 S 46.4 175.9 45.4 175.7"/>
        <ellipse fill="rgb(255, 255, 255)" cx="96.9" cy="154" rx="28" ry="28"/>
    </g>
    <g transform="matrix(1,-0.4,0.4,1,-10.9,59.3)">
        <path fill="rgb(255, 255, 255)" transform="matrix(1.1,0,0,1.1,-26.3,-9)" d="M 214.9 114.2 C 212.2 119.8 211.3 120.6 210.6 129.4 S 216.9 148.8 220.3 150.6 S 224.3 154 232.6 155.8 S 232.6 155.8 232.6 155.8 S 178.9 162.6 178.9 162.6 S 174.3 155.2 173.3 155"/>
        <ellipse fill="rgb(255, 255, 255)" cx="237.5" cy="131.3" rx="28" ry="28"/>
    </g>
    <g transform="matrix(0.9,0.5,-0.5,0.9,143.2,-102.4)">
        <path fill="rgb(255, 255, 255)" transform="matrix(1.1,0,0,1.1,-26.3,-9)" d="M 282.1 154 C 279.4 159.6 278.5 160.4 277.8 169.2 S 284.1 188.6 287.5 190.4 S 291.5 193.8 299.8 195.6 S 299.8 195.6 299.8 195.6 S 246.1 202.4 246.1 202.4 S 241.5 195 240.5 194.8"/>
        <ellipse fill="rgb(255, 255, 255)" cx="311.6" cy="174.9" rx="28" ry="28"/>
    </g>
    <g transform="matrix(0.4,0.9,-0.9,0.4,420.3,-106.2)">
        <path fill="rgb(255, 255, 255)" transform="matrix(1.1,0,0,1.1,-26.3,-9)" d="M 297.5 247.7 C 294.8 253.3 293.9 254.1 293.2 262.9 S 299.5 282.3 302.9 284.1 S 306.9 287.5 315.2 289.3 S 315.2 289.3 315.2 289.3 S 261.5 296.1 261.5 296.1 S 256.9 288.7 255.9 288.5"/>
        <ellipse fill="rgb(255, 255, 255)" cx="328.6" cy="278.2" rx="28" ry="28"/>
    </g>
</svg>