<svg viewBox="0 0 400 400" width="400px" height="400px" xmlns="http://www.w3.org/2000/svg" version="1.1" xmlns:xlink="http://www.w3.org/1999/xlink">
    <ellipse cx="271.5" cy="95" rx="58.5" ry="58" fill="rgb(255, 255, 255)"/>
    <polyline points="207,74 204,97 205,120 216,140 235,155 261,162 279,162 299,156 25,338" fill="rgb(255, 255, 255)"/>
    <ellipse cx="288.5" cy="263" rx="45.5" ry="46" fill="rgb(255, 255, 255)"/>
    <polyline transform="matrix(1,0.3,-0.3,1,89.7,-48)" points="218.2,214.3 218.2,226.3 219.2,243.3 225.2,259.3 235.2,269.3 245.2,276.3 261.2,280.3 277.2,281.3 100.2,370.3" fill="rgb(255, 255, 255)"/>
    <ellipse cx="100.5" cy="124.5" rx="29.5" ry="28.5" fill="rgb(255, 255, 255)"/>
    <path d="M 27 278 C 27 279 122 155 122 155 S 69 182 64 118" fill="rgb(255, 255, 255)"/>
</svg>