<svg>
    <ellipse transform="matrix(1.1,0,0,1.1,-15.5,-14.4)" cx="137" cy="186.3" rx="75" ry="75" fill="rgb(255, 255, 255)"/>
    <ellipse transform="matrix(1.1,0,0,1.1,-34.5,-19.2)" cx="323.1" cy="251.1" rx="25" ry="25" fill="rgb(255, 255, 255)"/>
    <ellipse transform="matrix(1.1,0,0,1.1,-24.2,-21.7)" fill="rgb(255, 255, 255)" cx="221.4" cy="284.5" rx="25" ry="25"/>
    <ellipse transform="matrix(1.1,0,0,1.1,-30.5,-15.2)" fill="rgb(255, 255, 255)" cx="282.7" cy="197.4" rx="25" ry="25"/>
    <ellipse transform="matrix(1.1,0,0,1.1,-30,-8.2)" fill="rgb(255, 255, 255)" cx="277.8" cy="103.7" rx="25" ry="25"/>
    <path transform="matrix(1.1,0,0,1.1,-26.3,-9)" d="M 249.9 90.3 C 247.2 95.9 246.3 96.7 245.6 105.5 S 251.9 124.9 255.3 126.7 S 259.3 130.1 267.6 131.9 S 267.6 131.9 267.6 131.9 S 213.9 138.7 213.9 138.7 S 209.3 131.3 208.3 131.1" fill="rgb(255, 255, 255)"/>
    <path transform="matrix(1.1,0,0,1.1,-26.8,-15)" d="M 268.5 171.2 C 232.9 191.6 260.7 218 260.7 218 S 224.7 194.4 224.7 194.4 S 224.7 184.8 224.7 184.8" fill="rgb(255, 255, 255)"/>
    <path transform="matrix(1.1,0,0,1.1,-28.8,-18.2)" d="M 223.9 211.1 C 223.9 211.1 298.9 272.7 298.7 272.7 S 285.9 262.5 288.7 244.9 S 307.3 224.5 307.3 224.5 S 299.9 223.9 299.9 223.9 S 296.5 222.7 288.5 226.9 S 266.3 225.3 261.5 224.1 S 226.1 200.9 226.1 200.9" fill="rgb(255, 255, 255)"/>
    <path transform="matrix(1.1,0,0,1.1,-22.4,-20.7)" d="M 183.2 260.8 C 183.2 260.8 191.8 290.4 192 290.2 S 189.8 274.8 198.8 263.8 S 225.6 256.4 225.6 256.4 S 196.8 250.4 197.2 250.6" fill="rgb(255, 255, 255)"/>
</svg>