<svg version="1.1" id="Capa_1" xmlns="http://www.w3.org/2000/svg" xmlns:xlink="http://www.w3.org/1999/xlink" x="0px" y="0px" 
viewBox="0 0 460.775 460.775" style="enable-background: new 0 0 460.775 460.775" xml:space="preserve">
<path fill="rgb(255, 255, 255)" d="M 285.1 230.4 L 456.2 59.3 c 6.1 -6.1 6.1 -15.9 0 -22 L 423.5 4.6 c -2.9 -2.9 -6.9 -4.5 -11 -4.5 c -4.1 0 -8.1 1.6 -11 4.5 l -171.1 171.1 L 59.3 4.6 c -2.9 -2.9 -6.9 -4.5 -11 -4.5 c -4.1 0 -8.1 1.6 -11 4.5 L 4.6 37.3 c -6.1 6.1 -6.1 15.9 0 22 l 171.1 171.1 L 4.6 401.5 c -6.1 6.1 -6.1 15.9 0 22 l 32.7 32.7 c 2.9 2.9 6.9 4.5 11 4.5 c 4.1 0 8.1 -1.6 11 -4.5 l 171.1 -171.1 l 171.1 171.1 c 2.9 2.9 6.9 4.5 11 4.5 c 4.1 0 8.1 -1.6 11 -4.5 l 32.7 -32.7 c 6.1 -6.1 6.1 -15.9 0 -22 L 285.1 230.4 z"/>
</svg>