<!-- <?xml version="1.0" encoding="iso-8859-1"?> -->
<!-- Generator: Adobe Illustrator 16.0.0, SVG Export Plug-In . SVG Version: 6.00 Build 0)  -->
<!DOCTYPE svg PUBLIC "-//W3C//DTD SVG 1.1//EN" "http://www.w3.org/Graphics/SVG/1.1/DTD/svg11.dtd">
<svg version="1.1" id="Capa_1" xmlns="http://www.w3.org/2000/svg" xmlns:xlink="http://www.w3.org/1999/xlink" x="0px" y="0px"
	 width="429.7px" height="429.7px" viewBox="0 0 429.658 429.658" style="enable-background: new 0 0 429.658 429.658"
	 xml:space="preserve">
<g>
	<g >
		<path transform="rotate(90)" transform-origin="center" d="M 235.3 13.4 l -0.4 -1 c -3.4 -7.6 -11.6 -12.9 -19.7 -12.4 l -0.3 0 l -0.3 0 C 214.2 0 213.9 0 213.5 0 c -7.7 0 -15.4 5.1 -18.7 12.4 l -0.5 1 L 13.7 176.1 c -6.9 6.2 -6.5 12.7 -5 17 c 2.7 7.6 10.4 13.4 18.3 13.8 l 1.6 0.3 c 0.7 0.2 1.4 0.3 2.1 0.4 c 23 2.4 45.5 2.9 64.5 3 l 5.2 0 V 407.9 c 0 11 7.2 15.2 11.5 16.6 l 1 0.3 l 0.8 0.7 c 3.1 2.7 7 4.1 11.6 4.1 h 179.2 c 4.6 0 8.5 -1.4 11.6 -4.1 l 0.8 -0.7 l 1 -0.3 c 4.3 -1.5 11.5 -5.6 11.5 -16.6 V 210.7 l 5.1 0 c 19 -0.2 41.4 -0.7 64.5 -3 c 0.7 -0.1 1.4 -0.3 2.1 -0.4 l 1.6 -0.3 c 8 -0.4 15.7 -6.3 18.3 -13.8 c 1.5 -4.3 1.9 -10.8 -5 -17 L 235.3 13.4 z M 344.1 173.4 c -11.1 0.2 -22.2 0.3 -33.3 0.3 c -5.2 0 -9.4 1.6 -12.5 4.8 c -3.4 3.4 -5.3 8.5 -5.3 13.9 l 0 0.7 l -0.2 0.6 c -0.4 1.8 -0.6 3.3 -0.6 4.9 v 194 H 137.5 V 198.5 c 0 -1.6 -0.2 -3.2 -0.6 -4.9 l -0.2 -0.6 l 0 -0.7 c 0 -5.5 -1.9 -10.5 -5.3 -13.9 c -3.1 -3.2 -7.4 -4.8 -12.5 -4.8 c -11.1 0 -22.2 -0.1 -33.3 -0.3 l -13.2 -0.2 L 214.8 44.9 l 142.5 128.2 L 344.1 173.4 z"/>
	</g>
</g>
</svg>
