<?xml version="1.0" encoding="utf-8"?>
<svg viewBox="100 0 300 300.824" xmlns="http://www.w3.org/2000/svg">
  <path style="fill: rgb(46, 209, 65); stroke: rgb(0, 105, 26); stroke-width: 3px; stroke-linejoin: round; stroke-linecap: round;" d="M 239.244 187.243 C 216.754 190.784 194.885 245.752 258.35 232.342 C 260.741 231.838 266.892 230.189 265.888 230.531 C 264.908 230.075 292.697 214.481 274.408 187.106 C 268.465 185.69 274.796 173.992 239.244 187.243 Z" transform="matrix(0, 0.999991, -1.000009, 0, 456.32301, -40.88699)"/>
  <path style="fill: rgb(241, 153, 44); stroke-width: 3px; stroke: rgb(82, 53, 0); stroke-linecap: round;" d="M 249.579 233.28 C 198.799 213.888 154.748 292.845 249.989 455"/>
  <path style="fill: rgb(255, 255, 255);" d="M 195.781 298.222 C 195.781 298.222 235.511 303.316 235.525 303.636 C 235.54 303.957 196.224 307.276 196.224 307.276"/>
  <path style="fill: rgb(241, 153, 44); stroke-width: 3px; stroke: rgb(82, 53, 0); stroke-linecap: round;" d="M 305.419 452.118 C 254.64 471.51 210.178 392.553 305.419 230.398" transform="matrix(-1, 0, 0, -1, 554.864725, 685.398492)"/>
  <path style="fill: rgb(255, 255, 255);" d="M 301.769 271.819 C 301.769 271.819 259.639 276.081 259.639 276.391 C 259.639 276.702 303.438 285.971 303.438 285.971"/>
  <path style="fill: rgb(255, 255, 255);" d="M 298.858 333.666 C 298.858 333.666 265.696 341.165 265.696 341.475 C 265.696 341.785 296.093 345.054 296.093 345.054"/>
  <path style="fill: rgb(255, 255, 255);" d="M 211.169 370.014 C 211.169 370.014 243.758 375.798 243.772 376.119 C 243.786 376.439 213.952 377.442 213.952 377.442"/>
  <path style="fill: rgb(216, 216, 216); stroke: rgb(241, 153, 44); stroke-width: 4px;" d="M 249.579 236.701 L 249.446 447.14"/>
</svg>