<?xml version="1.0" encoding="utf-8"?>
<svg viewBox="100 0 300 300.824" xmlns="http://www.w3.org/2000/svg">
  <path style="fill: rgb(46, 209, 65); stroke: rgb(0, 105, 26); stroke-width: 3px; stroke-linejoin: round; stroke-linecap: round;" d="M 217.345 160.201 C 194.298 156.571 171.886 100.242 236.924 113.984 C 239.374 114.501 245.678 116.19 244.65 115.841 C 243.644 116.306 271.209 133.565 252.467 161.619 C 249.208 173.972 253.779 173.779 217.345 160.201 Z"/>
  <path style="fill: rgb(46, 209, 65); stroke: rgb(0, 105, 26); stroke-width: 3px; stroke-linejoin: round; stroke-linecap: round;" d="M 263.137 118.959 C 238.036 122.912 213.625 184.264 284.464 169.298 C 287.131 168.734 293.999 166.894 292.877 167.274 C 291.784 166.767 321.805 147.971 301.389 117.415 C 295.912 110.681 301.51 108.74 263.137 118.959 Z" transform="matrix(-1, 0, 0, -1, 546.334203, 283.47367)"/>
  <path style="fill: rgb(46, 209, 65); stroke: rgb(0, 105, 26); stroke-width: 3px; stroke-linejoin: round; stroke-linecap: round;" d="M 238.298 100.665 C 208.536 105.351 179.594 178.092 263.58 160.347 C 266.744 159.679 274.884 157.498 273.556 157.949 C 272.26 157.346 309.033 136.709 284.831 100.484 C 276.966 98.61 285.344 83.129 238.298 100.665 Z" transform="matrix(0, 0.999991, -1.000009, 0, 378.444062, -122.924863)"/>
  <path style="fill: rgb(241, 153, 44); stroke-width: 3px; stroke: rgb(82, 53, 0); stroke-linecap: round;" d="M 251.973 161.588 C 184.775 135.925 126.48 240.413 252.516 455"/>
  <path style="fill: rgb(255, 255, 255);" d="M 180.78 247.529 C 180.78 247.529 233.356 254.269 233.375 254.693 C 233.395 255.118 181.366 259.509 181.366 259.509"/>
  <path style="fill: rgb(241, 153, 44); stroke-width: 3px; stroke: rgb(82, 53, 0); stroke-linecap: round;" d="M 325.869 451.186 C 258.67 476.849 199.833 372.361 325.869 157.774" transform="matrix(-1, 0, 0, -1, 577.666105, 612.774599)"/>
  <path style="fill: rgb(255, 255, 255);" d="M 321.04 212.587 C 321.04 212.587 265.287 218.228 265.287 218.639 C 265.287 219.05 323.248 231.316 323.248 231.316"/>
  <path style="fill: rgb(255, 255, 255);" d="M 317.187 294.434 C 317.187 294.434 273.301 304.356 273.301 304.767 C 273.301 305.178 313.528 309.503 313.528 309.503"/>
  <path style="fill: rgb(255, 255, 255);" d="M 201.144 342.533 C 201.144 342.533 244.27 350.189 244.289 350.613 C 244.308 351.036 204.826 352.364 204.826 352.364"/>
  <path style="fill: rgb(216, 216, 216); stroke: rgb(241, 153, 44); stroke-width: 4px;" d="M 251.973 166.116 L 251.797 444.598"/>
</svg>