<?xml version="1.0" encoding="utf-8"?>
<svg viewBox="100 0 300 300.824" xmlns="http://www.w3.org/2000/svg">
  <path style="fill: rgb(46, 209, 65); stroke: rgb(0, 105, 26); stroke-width: 3px; stroke-linejoin: round; stroke-linecap: round;" d="M 251.197 164.13 C 231.288 167.264 211.928 215.925 268.112 204.054 C 270.227 203.607 275.674 202.148 274.784 202.45 C 273.917 202.047 297.728 187.139 281.536 162.904 C 277.191 157.564 281.631 156.024 251.197 164.13 Z" transform="matrix(-1, 0, 0, -1, 518.304077, 364.3898)"/>
  <path style="fill: rgb(46, 209, 65); stroke: rgb(0, 105, 26); stroke-width: 3px; stroke-linejoin: round; stroke-linecap: round;" d="M 231.495 149.62 C 207.89 153.336 184.936 211.03 251.548 196.955 C 254.058 196.426 260.514 194.695 259.461 195.054 C 258.432 194.576 287.598 178.208 268.403 149.475 C 262.165 147.99 268.81 135.712 231.495 149.62 Z" transform="matrix(0, 0.999991, -1.000009, 0, 412.429846, -70.210121)"/>
  <path style="fill: rgb(241, 153, 44); stroke-width: 3px; stroke: rgb(82, 53, 0); stroke-linecap: round;" d="M 249.342 194.285 C 196.045 173.931 149.809 256.804 249.773 427"/>
  <path style="fill: rgb(255, 255, 255);" d="M 192.876 266.102 C 192.876 266.102 234.576 271.448 234.592 271.785 C 234.607 272.121 193.342 275.605 193.342 275.605"/>
  <path style="fill: rgb(241, 153, 44); stroke-width: 3px; stroke: rgb(82, 53, 0); stroke-linecap: round;" d="M 307.951 423.975 C 254.654 444.329 207.988 361.456 307.951 191.26" transform="matrix(-1, 0, 0, -1, 557.153392, 618.260427)"/>
  <path style="fill: rgb(255, 255, 255);" d="M 304.121 238.389 C 304.121 238.389 259.902 242.863 259.902 243.189 C 259.902 243.514 305.872 253.243 305.872 253.243"/>
  <path style="fill: rgb(255, 255, 255);" d="M 301.065 303.303 C 301.065 303.303 266.258 311.174 266.258 311.5 C 266.258 311.826 298.163 315.256 298.163 315.256"/>
  <path style="fill: rgb(255, 255, 255);" d="M 209.028 342.454 C 209.028 342.454 243.232 348.525 243.247 348.861 C 243.263 349.198 211.948 350.251 211.948 350.251"/>
  <path style="fill: rgb(216, 216, 216); stroke: rgb(241, 153, 44); stroke-width: 4px;" d="M 249.342 197.876 L 249.203 418.75"/>
</svg>